<svg width="394" height="167" viewBox="0 0 394 167" fill="none" xmlns="http://www.w3.org/2000/svg">
    <g clip-path="url(#clip0_5457_7898)">
        <path d="M31.8206 0H39.9041C41.32 0.874001 47.7402 1.30359 49.8646 1.57024L72.0963 4.37951L137.1 12.7353L305.622 34.367L344.837 39.4078C353.993 40.5863 370.996 41.8168 379.166 45.4407C386.298 48.6036 391.513 55.8046 393.285 63.2752C394.939 70.2588 389.606 105.057 388.461 114.286L385.94 134.085C385.435 137.989 384.993 142.051 384.231 145.863C382.127 156.381 373.197 164.02 363 166.427C362.237 166.606 361.544 166.692 360.815 167H355.686C353.983 165.938 272.13 155.899 263.37 154.776L84.3295 131.806L42.8368 126.488C34.5654 125.447 25.524 124.687 17.4851 122.688C15.7174 122.249 15.0171 121.492 13.5912 120.667C8.17841 117.601 4.31776 112.963 1.86665 107.293C1.14634 105.627 0.837054 103.223 0 101.821V92.9858C0.834317 91.9072 2.00396 79.8245 2.30671 77.5623L7.16369 40.0469C8.03053 33.1056 8.68467 23.7307 10.7443 17.3817C13.0533 10.264 20.6703 3.32751 27.6906 1.34061C28.8738 1.00575 30.6143 0.585281 31.6793 0.0700846L31.8206 0Z"
              fill="#E8E7E8"/>
        <path d="M31.3194 21.0037C35.0861 21.7343 40.8057 22.3503 44.6888 22.8807C54.4798 24.2185 64.2797 25.4907 74.0877 26.6974L148.795 36.4086L268.331 51.6226C302.784 56.0187 338.059 60.6672 372.529 64.5956C372.292 69.1177 371.31 75.1582 370.715 79.7622C369.779 87.1797 368.888 94.6027 368.043 102.031C366.937 111.698 365.749 121.355 364.477 131.002C363.979 135.088 363.427 142.056 362.651 145.827L362.236 146.087C358.476 145.848 353.108 145.004 349.244 144.508L325.431 141.432L250.925 131.666L20.6926 102.236C21.0705 97.4982 21.928 91.9317 22.5413 87.1536L25.9965 60.5162L29.2832 36.1939C29.9112 31.4011 30.4714 25.6655 31.3194 21.0037Z"
              fill="#0F64BE"/>
        <path d="M266.075 82.2597C266.194 82.2455 266.311 82.2331 266.43 82.2226C271.405 81.7804 273.917 83.4524 277.461 86.4055C278.381 86.0834 277.484 85.1565 278.268 84.3975C279.685 84.1037 284.172 84.9998 285.782 85.2661C284.631 93.0573 283.644 113.288 279.307 118.851C277.144 121.624 273.847 123.1 270.412 123.526C264.626 124.245 259.1 122.837 254.523 119.259L252.908 117.712L257.653 113.285C260.024 115.582 262.637 116.871 265.946 117.041C271.989 117.352 274.459 114.721 274.832 108.982C259.997 116.65 248.908 100.374 257.24 87.6761C259.229 84.6446 262.55 82.8435 266.075 82.2597Z"
              fill="#E8E7E8"/>
        <path d="M268.024 89.3416C269.699 89.2601 270.781 89.1575 272.338 89.8046C274.078 90.5117 275.461 91.8864 276.178 93.621C277.912 97.8844 275.773 102.791 271.454 104.508C269.536 104.561 267.894 104.509 266.163 103.595C264.403 102.688 263.091 101.102 262.528 99.2043C261.098 94.4914 263.385 90.6777 268.024 89.3416Z"
              fill="#0F64BE"/>
        <path d="M48.1244 44.9244C50.8791 45.2043 53.538 45.5757 56.3119 45.7892C55.5581 49.5954 55.0044 56.474 54.5671 60.5628C59.3199 60.883 67.1733 62.2195 72.0406 62.8773L73.9666 48.2128C76.1996 48.2747 79.5121 48.7175 81.7967 48.9603C80.9515 57.5747 78.0394 77.4417 77.0007 86.791C76.9899 86.8888 76.3535 86.9401 76.152 86.9688C73.8549 86.5936 71.5498 86.2698 69.2382 85.9976C69.6866 80.7609 70.7845 75.0898 70.9857 69.881C65.4673 69.1453 58.8232 68.0869 53.3774 67.6643C52.8813 72.8347 52.1437 78.3229 51.5659 83.5251C48.8545 83.3347 46.2381 83.0097 43.5439 82.6844C43.784 79.5295 44.4228 75.7455 44.7867 72.5269C45.821 63.3792 47.3047 54.0751 48.1244 44.9244Z"
              fill="#E8E7E8"/>
        <path d="M331.899 90.8467C340.109 89.2125 348.084 94.5591 349.687 102.772C351.291 110.986 345.912 118.938 337.691 120.509C329.512 122.073 321.61 116.731 320.015 108.562C318.42 100.393 323.734 92.4722 331.899 90.8467Z"
              fill="#E8E7E8"/>
        <path d="M332.799 97.991C334.479 97.8447 336.584 97.7302 338.081 98.536C344.212 101.835 343.086 111.48 336.569 113.661C326.806 115.823 323.894 101.175 332.799 97.991Z"
              fill="#0F64BE"/>
        <path d="M97.3502 60.9381C105.516 59.2556 113.498 64.5146 115.173 72.6797C116.847 80.8447 111.577 88.8188 103.407 90.4829C95.2504 92.1445 87.289 86.8866 85.6179 78.7345C83.9466 70.5824 89.1973 62.6179 97.3502 60.9381Z"
              fill="#E8E7E8"/>
        <path d="M97.986 67.7775C99.5192 67.6307 101.164 67.572 102.618 68.1098C104.627 68.8461 106.251 70.3652 107.12 72.3198C109.261 77.0198 107.063 81.5192 102.513 83.5796C99.0823 84.458 95.6646 82.9554 94.0386 79.801C92.9292 77.6117 92.7417 75.07 93.5182 72.7418C94.3388 70.2879 95.7368 68.9048 97.986 67.7775Z"
              fill="#0F64BE"/>
        <path d="M154.65 67.8447C155.867 67.8018 157.086 67.8795 158.289 68.0767C161.852 68.6313 165.041 70.6014 167.131 73.5399C170.181 77.8237 169.885 81.8652 169.062 86.7022C163.466 86.6132 155.607 84.7123 149.918 84.3982C149.309 84.3647 148.954 84.922 148.68 85.3687C148.658 86.2705 148.866 86.8305 149.385 87.555C152.645 92.1085 157.94 91.9464 162.223 89.0111L162.764 89.1283C164.212 90.6169 165.619 92.1435 166.986 93.7063C161.671 99.0085 152.173 98.8823 146.459 94.3656C143.437 91.938 141.486 88.4241 141.024 84.5762C139.985 75.5077 145.686 68.8019 154.65 67.8447Z"
              fill="#E8E7E8"/>
        <path d="M153.928 74.1009C156.293 73.8809 157.689 74.1539 159.742 75.429C160.896 76.1451 162.921 79.1027 162.065 80.2906C160.933 80.5256 158.774 80.1586 157.541 80.0094C154.702 79.7759 151.839 79.3755 149.011 79.0088C149.252 78.4907 149.501 77.9766 149.759 77.4665C150.81 75.4175 151.808 74.7815 153.928 74.1009Z"
              fill="#0F64BE"/>
        <path d="M223.798 77.3171C226.537 77.3859 228.73 77.7537 231.445 78.1679L230.66 81.3396C234.184 79.1826 236.083 78.2137 240.442 78.6737C244.684 78.7542 249.38 82.5832 249.375 87.1585C249.365 93.7875 247.951 101.999 247.091 108.658C244.546 108.375 242.012 108.013 239.489 107.576L240.665 96.5674C241.03 94.212 241.398 90.6003 241.401 88.2564C241.268 88.0704 241.13 87.8868 240.989 87.7056C237.833 83.6453 231.508 84.3218 230.389 89.1053C229.202 94.1848 228.637 101.118 228.131 106.342C225.512 105.958 222.882 105.654 220.245 105.433C221.517 96.0718 222.701 86.6997 223.798 77.3171Z"
              fill="#E8E7E8"/>
        <path d="M125.617 56.7638C127.754 56.7857 131.135 57.2789 133.273 57.5603C133.034 60.1638 132.789 62.7047 132.688 65.3209C134.582 65.6472 137.291 65.8282 139.268 66.01C139.192 67.8525 138.779 70.6557 138.55 72.5572C136.347 72.4051 133.822 72.0852 131.6 71.8577C131.033 75.0496 129.975 83.0235 130.047 85.9492C132.55 88.2028 133.163 87.9866 136.313 87.5189C136.342 89.7 136.398 90.8424 136.718 92.9982C136.713 93.5312 136.719 93.6229 136.426 94.0914C133.81 95.6577 126.179 94.1874 124.292 91.4729C120.792 86.4389 123.47 76.8017 124.061 70.7289L118.989 70.3408L119.563 63.7358L124.977 63.9753C125.204 61.5727 125.416 59.1688 125.617 56.7638Z"
              fill="#E8E7E8"/>
        <path d="M178.677 59.0357C180.956 59.0922 184.135 59.5467 186.583 59.7186C186.231 62.0893 185.874 64.5178 185.616 66.8992C184.415 77.9989 182.345 89.2794 181.44 100.389C178.946 99.9285 176.066 99.6072 173.527 99.2689C175.506 87.8 177.591 70.7481 178.677 59.0357Z"
              fill="#E8E7E8"/>
        <path d="M194.234 61.1203C196.656 61.0944 199.614 61.4847 202.068 61.7459C201.347 66.2831 200.828 71.4972 200.228 76.1225C199.108 84.7654 197.905 93.5176 196.903 102.171C194.843 102.135 191.433 101.587 189.286 101.301C191.138 87.933 192.788 74.538 194.234 61.1203Z"
              fill="#E8E7E8"/>
        <path d="M208.403 75.2854C210.498 75.3985 213.806 75.9083 215.977 76.1734C215.447 78.621 215.252 81.9662 214.89 84.4958C213.975 90.8861 213.482 97.9674 212.387 104.276C209.997 103.902 207.032 103.646 204.587 103.369C206.043 94.2021 206.722 84.3493 208.403 75.2854Z"
              fill="#E8E7E8"/>
        <path d="M308.427 87.8919C311.007 88.2173 313.588 88.52 316.174 88.8C314.703 96.1322 313.188 109.767 312.599 117.172C309.997 116.943 307.514 116.596 304.927 116.238C305.86 106.762 307.027 97.3106 308.427 87.8919Z"
              fill="#E8E7E8"/>
        <path d="M292.152 105.737C294.723 104.749 297.606 106.046 298.571 108.625C299.537 111.203 298.215 114.074 295.628 115.017C293.072 115.949 290.241 114.647 289.287 112.1C288.333 109.553 289.611 106.712 292.152 105.737Z"
              fill="#E8E7E8"/>
        <path d="M212.249 62.2434C214.853 62.0743 217.133 62.6811 218.128 65.3633C218.561 66.515 218.504 67.7938 217.969 68.9022C217.219 70.4732 216.14 70.8775 214.646 71.4349C212.312 71.5907 210.251 71.1989 209.055 68.9355C208.524 67.9231 208.423 66.74 208.774 65.6521C209.361 63.7734 210.643 63.0726 212.249 62.2434Z"
              fill="#E8E7E8"/>
        <path d="M312.033 75.244C314.531 74.5118 317.148 75.9447 317.875 78.4419C318.602 80.9392 317.164 83.5525 314.664 84.2746C312.172 84.9946 309.566 83.5616 308.841 81.0714C308.116 78.5813 309.544 75.9742 312.033 75.244Z"
              fill="#E8E7E8"/>
    </g>
    <defs>
        <clipPath id="clip0_5457_7898">
            <rect width="394" height="167" fill="white"/>
        </clipPath>
    </defs>
</svg>
