<svg width="20" height="20" viewBox="0 0 20 20" fill="none" xmlns="http://www.w3.org/2000/svg">
    <path d="M11.6667 1.66669H5C4.55797 1.66669 4.13405 1.84228 3.82149 2.15484C3.50893 2.4674 3.33333 2.89133 3.33333 3.33335V16.6667C3.33333 17.1087 3.50893 17.5326 3.82149 17.8452C4.13405 18.1578 4.55797 18.3334 5 18.3334H15C15.442 18.3334 15.866 18.1578 16.1785 17.8452C16.4911 17.5326 16.6667 17.1087 16.6667 16.6667V6.66669L11.6667 1.66669Z"
          stroke="#7D7D7D" stroke-width="1.5" stroke-linecap="round" stroke-linejoin="round"/>
    <path d="M11.6667 1.66669V6.66669H16.6667" stroke="#7D7D7D" stroke-width="1.5" stroke-linecap="round"
          stroke-linejoin="round"/>
    <path d="M13.3333 10.8333H6.66667" stroke="#7D7D7D" stroke-linecap="round" stroke-linejoin="round"/>
    <path d="M13.3333 14.1667H6.66667" stroke="#7D7D7D" stroke-linecap="round" stroke-linejoin="round"/>
    <path d="M8.33333 7.5H7.5H6.66667" stroke="#7D7D7D" stroke-linecap="round" stroke-linejoin="round"/>
</svg>
