<svg width="14" height="14" viewBox="0 0 14 14" fill="none" xmlns="http://www.w3.org/2000/svg">
    <g clip-path="url(#clip0_4786_31014)">
        <path d="M9.91671 12.25V11.0833C9.91671 10.4645 9.67087 9.871 9.23329 9.43342C8.7957 8.99583 8.20221 8.75 7.58337 8.75H2.91671C2.29787 8.75 1.70438 8.99583 1.26679 9.43342C0.829207 9.871 0.583374 10.4645 0.583374 11.0833V12.25" stroke="#008421" stroke-width="1.5" stroke-linecap="round" stroke-linejoin="round"/>
        <path d="M5.24996 6.41667C6.53862 6.41667 7.58329 5.372 7.58329 4.08333C7.58329 2.79467 6.53862 1.75 5.24996 1.75C3.96129 1.75 2.91663 2.79467 2.91663 4.08333C2.91663 5.372 3.96129 6.41667 5.24996 6.41667Z" stroke="#008421" stroke-width="1.5" stroke-linecap="round" stroke-linejoin="round"/>
        <path d="M13.4166 12.25V11.0833C13.4162 10.5663 13.2442 10.0641 12.9274 9.65549C12.6107 9.24689 12.1672 8.95505 11.6666 8.82581" stroke="#008421" stroke-width="1.5" stroke-linecap="round" stroke-linejoin="round"/>
        <path d="M9.33337 1.82581C9.83528 1.95431 10.2801 2.24621 10.5978 2.65549C10.9155 3.06476 11.0879 3.56812 11.0879 4.08622C11.0879 4.60432 10.9155 5.10769 10.5978 5.51696C10.2801 5.92623 9.83528 6.21813 9.33337 6.34664" stroke="#008421" stroke-width="1.5" stroke-linecap="round" stroke-linejoin="round"/>
    </g>
    <defs>
        <clipPath id="clip0_4786_31014">
            <rect width="14" height="14" fill="white"/>
        </clipPath>
    </defs>
</svg>
